<?xml version="1.0" encoding="utf-8"?>
<!-- Generator: Adobe Illustrator 19.0.0, SVG Export Plug-In . SVG Version: 6.00 Build 0)  -->
<svg version="1.1" xmlns="http://www.w3.org/2000/svg" xmlns:xlink="http://www.w3.org/1999/xlink" x="0px" y="0px"
	 viewBox="0 0 504 504" style="enable-background:new 0 0 504 504;" xml:space="preserve">
<style type="text/css">
	.st0{fill:none;}
	.st1{fill:none;stroke:#070202;stroke-miterlimit:10;}
	.st2{fill:none;stroke:#0C0606;stroke-miterlimit:10;}
	.st3{fill:none;stroke:#020202;stroke-miterlimit:10;}
	.st4{fill:none;stroke:#070404;stroke-miterlimit:10;}
	.st5{fill:none;stroke:#000000;stroke-miterlimit:10;}
</style>
<g id="Layer_3">
	<path class="st0" d="M209.5,225.9c1.9,9.2,4.5,18.5,10.3,25.9c3.2,4,7.1,7.3,10.5,11.2c7.5,8.6,11.6,20.1,11.3,31.5"/>
	<path class="st0" d="M307.2,61.4c6.9,9.7,11.4,21.2,12.8,33c0.1,0.7,0,1.7-0.7,1.9"/>
	<path class="st1" d="M319.9,102.7c-0.7,6.7-1.3,13.8,1.8,19.7c1,2,2.4,3.7,3.1,5.8c0.5,1.7,0.6,3.6,0.6,5.4
		c0,5.9,0.1,11.8,0.1,17.6c0,4.3,0,8.7-1.7,12.6c-2.9,6.8-10,10.9-13.4,17.4c-2.6,5.2-2.6,11.2-4.5,16.7c-2.6,7.7-9,13.9-16.8,16.2"
		/>
	<path class="st1" d="M312.2,68.1c-1.4,4.8,2.3,9.5,3.5,14.4c0.9,3.4,0.6,6.9,0.3,10.4"/>
	<path class="st1" d="M319.2,51.4c9.6,0.3,19.5,3.3,26,10.3c3.9,4.2,6.3,9.5,8.5,14.7c8.1,19.7,13.5,40.6,15.8,61.8
		c0.3,2.3,0.5,4.7-0.1,6.9c-1.5,5.8-7.9,9-10.5,14.3"/>
	<path class="st1" d="M339.2,67.9c9.9,9.5,16.5,22.5,18.4,36.1c0.9,6.2,0.8,12.4,0.8,18.6c-0.1,10.1-0.5,21.1-7,28.9
		c-6.7,0.5-13.8,15.1-3,15.8"/>
	<path class="st1" d="M358.1,163c4.2,5.4,4.8,12.8,3.2,19.4c-1.7,6.6-5.5,12.4-9.6,17.8c-3.2,4.1-7.2,8.4-12.4,8.9
		c-1.9,0.2-4-0.2-5.3-1.7c-0.9-1.1-1.2-2.6-1.3-4.1c-0.1-3.6,1.4-7.1,2.8-10.5c3.1-7.3,6.1-14.6,9.2-21.9"/>
	<path class="st1" d="M349,175.7c-2,8.1-4,16.2-6,24.3"/>
	<path class="st1" d="M339.7,166.5c-5,10.6-7.9,22.2-8.5,34c-0.1,1.2-0.1,2.4-0.8,3.4"/>
	<path class="st0" d="M365.8,225.2c16-0.2,31.8,8.3,40.6,21.8"/>
	<path class="st2" d="M118.3,290.4c7.8,21.5,17.4,42.3,28.6,62.2c-0.1-10.1-0.3-20.1-0.4-30.2c6,16,6,33.5,7.4,50.5
		c2.4,28.9,8.9,57.4,19.3,84.4c-9-10.5-12.6-24.6-15.9-38.1c-1.7,6.5-3.5,12.9-5.2,19.4c-6.3-4.7-7.2-13.6-8-21.4
		c-0.8-7.8-3.1-16.9-10.4-19.8c-1.4,9.7-9.5,18-19.1,19.6c7.8,10.3,15.7,20.7,23.5,31c-12.6-3.2-20.5-15.5-25.5-27.4
		c-5.1-11.9-8.9-25-18.2-33.9c0.6,2.4,0.5,5-0.5,7.3c0-4.7,0-9.4,0.1-14.1c5.5-5.4,14.8-2.8,21.7,0.6c7,3.4,15.2,7.3,22,3.5
		c-9.5-18.9-22.3-36.1-37.5-50.7c-4.6-4.4-9.7-8.7-15.8-10.6s-13.6-0.8-17.6,4.2"/>
	<path class="st2" d="M173.5,388c-0.4,13.4-0.4,26.7,0.3,40.1c0.3,6,0.7,12.3,3.8,17.5c3,5.2,9.4,9,15.1,7.1
		c4.8-1.6,7.6-6.4,10.1-10.8c13.4-23.4,29.9-45,48.9-64"/>
	<path class="st2" d="M234.3,421.8c9.1,8.8,20.5,15.2,32.7,18.5c0.3-6-0.9-12-3.5-17.4c10.7-0.4,20.9,4.5,30.5,9.3
		c3.9,1.9,7.8,3.9,11.6,5.8c2.6,1.3,5.5,2.9,6.3,5.7c1,3.2-1.4,6.7-4.4,8.1c-3,1.5-6.5,1.4-9.9,1.3c-2.8-0.1-6-0.3-7.8-2.3
		c-1.1-1.2-1.6-2.9-2.5-4.3c-1.6-2.3-4.6-3.5-7.3-3"/>
	<path class="st3" d="M247,120c0,0.2,0,0.3,0,0.5"/>
	<path class="st3" d="M247,130c0,0.8,0,1.7,0,2.5"/>
	<path class="st3" d="M244,125.5c-0.5,0-1,0-1.5,0"/>
	<path class="st3" d="M235.4,127.5c0.2,1,0.8,1.8,1.6,2.5"/>
	<path class="st3" d="M248.5,124.5c-0.2,0-0.3,0-0.5,0"/>
	<path class="st3" d="M242.6,122c0.2,0.3,0.7-0.2,0.4-0.4"/>
	<path class="st3" d="M241,130c0.5,0.2,1,0.4,1.5,0.5"/>
	<path class="st3" d="M260,130c0.5-0.2,1.2,0,1.5,0.4"/>
	<path class="st3" d="M268.5,132c-0.2,0.7,0,1.5,0.5,2"/>
	<path class="st3" d="M263.5,133.5c-0.3,0-0.7,0-1,0"/>
	<path class="st3" d="M262.5,139.5c-0.1,0.7,0.3,1.4,1,1.5"/>
	<path class="st3" d="M270,140c0.5,0,1,0,1.5,0"/>
	<path class="st3" d="M286,141.5c0,0.8,0,1.7,0,2.5"/>
	<path class="st3" d="M278,139c-0.7,0-1.3,0-2,0"/>
	<path class="st3" d="M275.5,147.5c0.8,0,1.7,0,2.5,0"/>
	<path class="st3" d="M281.4,141.5c0.2,0.7,0.3,1.3,0.5,2"/>
	<path class="st3" d="M293,148c1,0,2,0,3,0"/>
	<path class="st3" d="M292.5,144c0.5,0,1,0,1.5,0"/>
	<path class="st3" d="M301.5,144c0.3,0,0.7,0,1,0"/>
	<path class="st3" d="M301.5,149c0,1.5,0,2.9,0,4.4c0-0.8,0-1.6,0-2.4"/>
	<path class="st3" d="M220,128c-0.5,0-1,0-1.5,0"/>
	<path class="st3" d="M212,122c0.7,0.7,1.3,1.3,2,2"/>
	<path class="st3" d="M205.5,122.5c-0.7,0-1.3,0-2,0"/>
	<path class="st3" d="M204.5,127c0.2,0.3,0.3,0.7,0.5,1"/>
	<path class="st3" d="M211.5,130.5c0.8,0,1.7,0,2.5,0"/>
	<path class="st3" d="M209.5,126c0.2,0,0.3,0,0.5,0"/>
	<path class="st3" d="M222.5,125.5c0.3,0,0.7,0,1,0"/>
	<path class="st3" d="M228,125c0,0.3,0,0.7,0,1"/>
	<path class="st3" d="M227.5,130c-0.3,0-0.7,0-1,0"/>
	<path class="st3" d="M197.5,125.5c0.3,0,0.7,0,1,0"/>
	<path class="st3" d="M347.7,150.5c-4.2-2-9.5,0.1-12.6,3.6c-3.1,3.5-4.4,8.2-5.7,12.7c-2.5,9.1-4.8,18.4-4.9,27.8
		c0,3,0.2,6.1,1.5,8.8c2.6,5.1,8.9,7.6,14.6,6.8c5.7-0.8,10.7-4.4,14.5-8.7c8.3-9.5,11.6-22.5,12.1-35.1c0.1-2.2,0.1-4.5-0.7-6.6
		c-1.2-3-3.9-5.1-6.4-7"/>
	<path class="st3" d="M199.7,83.6c-0.3-3.2,1.9-6,4-8.4c12.5-14.3,26.6-27.3,41.9-38.5c17.9-2.4,36-2.8,53.9-1"/>
</g>
<g id="Layer_1">
	<path class="st4" d="M204.2,175.1c2.6,1.7,5.8,2.3,8.9,1.8c3.5-0.6,7-2.6,10.3-1.3c1,0.4,1.9,1.1,2.9,1.5c2.8,1.3,6,0.7,9.1,1.2
		c7.2,1.2,12.1,8.4,19.2,9.8c0.9,0.2,1.8,0.3,2.6-0.1c0.8-0.3,1.5-1.1,1.4-2"/>
	<path class="st5" d="M206.7,171.7c2.6,0.7,5.1-1.4,7.4-2.9c4.7-3,10.9-3.3,15.8-0.8c0.8,0.4,1.5,0.8,2.3,1c1.8,0.4,3.9-0.4,5.2,0.8
		"/>
	<path class="st4" d="M240.2,170.5c3.8,1.2,7.2,3.4,9.7,6.4c1,1.1,1.8,2.4,3,3.4s2.6,1.6,4.1,1.4"/>
	<path class="st4" d="M231.3,149.2c-1.1-0.4-2.5,0.3-2.9,1.5c-0.5,0.2-1-0.1-1.3-0.4c-1-1-0.9-2.9,0.1-3.8c1.1-1,2.9-0.8,3.8,0.3
		c0.5,0.6,0.6,1.4,0.3,2.1"/>
	<path class="st4" d="M246.9,149.2c-1.5-1.1-3.3-2.2-5-1.6c-1.4,0.5-2.2,2.5-1.5,3.8c2.2,0,4.3,1,5.7,2.6c0.7,0.8,1.6,1.8,2.5,1.3
		c1-2.7-0.3-6-2.8-7.3"/>
	<path class="st4" d="M254.8,144.9c0.1,1.2,0.1,2.3,0.2,3.5c0,0.7,0,1.5-0.5,1.8c-0.6,0.4-1.5,0.1-1.9,0.7c1.3,0.1,2.6-0.5,3.3-1.5
		c0.8-1,1-2.4,0.7-3.6C256,145.6,255.4,145.3,254.8,144.9"/>
	<path class="st4" d="M227.9,133.6c-2.2,2.5-4.3,5.1-6.2,7.8c-0.7,1-1.3,2-1.6,3.1c-0.1,0.6-0.1,1.2-0.2,1.7c0,1.5-0.1,2.9,0.4,4.3"
		/>
	<path class="st4" d="M222.3,147c-1,3.3,0.6,7.1,3.5,8.9"/>
	<path class="st4" d="M252.7,136.8c0.5,1.6,0.8,3.3,0.8,5.1"/>
	<path class="st4" d="M265.4,183.1c0.4,1.5,0.8,3,0.7,4.5c0,1.5-0.5,3.1-1.6,4.2"/>
	<path class="st4" d="M199.6,174.9c-0.5,1.8-0.4,3.8,0.3,5.6"/>
	<path class="st4" d="M219.6,183.6c3.6,2.3,7.8,3.5,12.1,3.3"/>
	<path class="st4" d="M234.2,224.4c7.5,0.2,15.1,0.4,22.3-1.7c2.7-0.8,5.3-1.9,7.8-3c6.4-2.7,12.8-5.4,19.1-8.1"/>
	<path class="st4" d="M276.5,228c5.7-0.8,11-4,15.2-7.9c4.3-3.9,7.7-8.7,11.1-13.4c1.6-2.2,3.1-4.4,4.4-6.8"/>
	<path class="st4" d="M272.7,121.4c-2.1,0.2-4.1,1.3-5.3,3c1,0.9,2.1,1.6,3.3,2.2"/>
	<path class="st4" d="M272,119.3c-2.3,0.4-4.8,0.9-6.5,2.6c-0.5,0.5-0.9,1.2-0.9,1.9c0.1,1,0.9,1.7,1.7,2.2"/>
	<path class="st4" d="M278.4,121.2c0.5-0.1,1,0.3,1.2,0.9c0.6,2.2-3,2.3-3.7,0.8c-0.6-1.3,0.9-3.3,2-3.9c4.2-2.6,6.2,3,4.8,6.2
		c-2.4,5.4-10.6,1.2-6.7-4.3c0.1-0.1,0.2-0.2,0.2-0.3"/>
	<path class="st4" d="M283.1,117.6c2.3,0.4,4.4,1.7,6.1,3.3s3.1,3.5,4.4,5.5c1.8,2.6,3.5,5.1,5.1,7.8"/>
	<path class="st4" d="M275.9,127.9c3.7,1,7.4,2,11,3.2"/>
	<path class="st4" d="M286.2,115.9c2.5,0.7,4.7,2.3,6.4,4.3c1.7,1.9,3.1,4.2,4.4,6.4"/>
	<path class="st4" d="M288,114c0.7,0.3,1.3,0.7,1.9,1.1c3.1,2.1,6.2,4.4,8.3,7.5c2,2.9,3,6.4,2.8,9.9"/>
	<path class="st4" d="M285.8,114.3c-5.6-0.6-11.4,0-16.9,1.6"/>
	<path class="st4" d="M278.2,116.4c-2.2-0.3-4.4,0.1-6.4,1"/>
	<path class="st4" d="M310.7,121.2c-2.2-5.7-5.6-11.8-11.5-13.7c-0.8-0.3-1.7-0.5-2.5-0.7c-0.9-0.3-1.8-0.7-2.7-1.1
		c-8.4-3.4-18.1-1.6-27.1-2.5c0-1.6,0-3.1,0-4.7c4.3-0.4,7.7-0.9,11.9-1.3c0.8-0.1,1.9-0.6,1.5-1.3c7,1.3,14,3.5,19.8,7.7
		C305.9,107.8,310.4,114.1,310.7,121.2z"/>
	<path class="st4" d="M203.9,96.3c1.4-1,2.9-2,4.3-3.1c0.6-0.5,1.3-0.9,2-1.2c1.2-0.5,2.6-0.3,3.9-0.2c7.3,0.9,14.5,2.8,21.3,5.7
		c0.7-2.1,1.9-4.1,3.6-5.6c-3.4,0.2-6.2-2.2-9.3-3.6c-3.5-1.5-7.5-1.5-11.4-1.5c-0.6,0-1.2,0-1.8,0.2c-0.8,0.2-1.5,0.7-2.2,1.2
		c-2.6,1.9-5.4,3.7-8.2,5.2"/>
	<path class="st4" d="M241.7,110.8c0.7,4.2-0.9,8.7-4,11.5"/>
	<path class="st4" d="M253.1,116.2c-1.1,5.2-1.5,10.5-1.1,15.7"/>
	<path class="st4" d="M233.2,115.8c-3.2-3-6-6.4-9.6-8.9c-3.6-2.5-8.4-3.9-12.4-2c-1.9,0.9-3.5,2.5-5.6,2.6"/>
	<path class="st4" d="M219.2,106.8c-2.4,0-4.8,0-7.2,0"/>
	<path class="st4" d="M212.1,107.7c0.1,1.4-0.3,2.9,0.3,4.2c0.4,0.9,1.2,1.6,2.1,2.1c1,0.5,2,0.9,3.1,0.8c1.4-0.2,2.5-1.1,3.5-2.1
		c0.6-0.6,1.1-1.4,1.3-2.2c0.2-0.9-0.1-1.9-0.7-2.6"/>
	<path class="st4" d="M218.4,109.6c0.1,0.4,0.1,0.9,0.1,1.3c0,0.1,0,0.2-0.1,0.2c-0.1,0.1-0.2,0.1-0.3,0.1c-0.4,0-0.7,0.3-1.1,0.4
		c-0.5,0.1-1.1-0.1-1.5-0.5c-0.3-0.4-0.4-1.1-0.1-1.6"/>
	<path class="st4" d="M208.1,113.4c3.1,2.1,7,3.3,10.8,3.1c1.2,0,2.5-0.2,3.7,0c1.4,0.2,2.6,0.9,3.9,1.5c1.3,0.6,2.6,1.1,4,1
		c1.4-0.1,2.8-1,3.1-2.3"/>
	<path class="st4" d="M228.3,116.2c0,0.1,0,0.2,0,0.3c-0.3-0.1-0.6,0.1-0.9,0.3c-0.3,0.1-0.7,0.2-0.9,0"/>
	<path class="st4" d="M214.3,101.7c3.2-0.2,6.5-0.4,9.6,0.5c5.1,1.6,8.9,6.6,9.4,12"/>
	<path class="st4" d="M206.1,116.3c-1.3,0.2-2.6,1-3.4,2.1"/>
	<path class="st4" d="M208.4,117.8c-0.9-0.3-2,0.2-2.3,1.1"/>
	<path class="st4" d="M210.4,102.2c-2-0.8-3.6-2.4-4.3-4.4"/>
	<path class="st4" d="M204.8,101.6c0.7,0.7,1.6,1.3,2.6,1.7"/>
	<path class="st4" d="M212.1,98c0,0.9,0,1.8,0,2.7c0,0.4,0.1,0.8,0.4,0.9"/>
	<path class="st4" d="M294.9,127.3c1.6-0.3,3.3-0.1,4.9-0.1c1.6,0,3.4-0.1,4.7-1.1"/>
	<path class="st4" d="M298,129.9c1.2,0.1,2.4,0.1,3.6-0.1"/>
	<path class="st4" d="M292.2,123.9c1.8,0,3.7,0,5.5,0"/>
	<path class="st4" d="M290,120.1c1.4,0,2.8,0,4.2,0"/>
	<path class="st4" d="M287.8,117.9c0.9,0,1.8,0,2.7,0"/>
	<path class="st1" d="M306.5,41.4c-4.7-5.4-9.3-10.7-14-16.1c-2.5-2.9-5.4-6-9.2-6.4c-2.9-0.3-5.8,1-8.5,2.2
		c-9.2,4.2-18.8,7.7-28.6,10.5c-4.5,1.3-9.2,2.4-13.1,5c-3.6,2.4-6.4,5.8-9.3,9c-5.5,6.1-11.6,11.7-16.4,18.3
		c-4.9,6.6-8.5,14.5-8.1,22.7c0.1,1.6,0.3,3.2-0.2,4.7c-0.6,1.8-2.2,3.1-3.5,4.5c-4.5,4.5-7.1,10.8-7.2,17.2"/>
	<path class="st1" d="M176.5,160.2c0.4,0.9-1,1.4-1.9,1.2c-2.9-0.6-5.2-3.2-6.1-6.1s-0.7-6-0.2-8.9c1-6.4,3.2-12.5,6.4-18.1
		c0.3-0.5,1-1.2,1.5-0.7c0.8,3.6,1.6,7.3,0.7,10.9c-0.5,1.8-1.4,3.5-2.1,5.3c-1.5,4.2-1.2,8.8-0.8,13.2c2.3-0.7,3.3-3.3,4-5.6
		c1.9-7,2.6-14.4,6.6-20.5c1.5-2.3,3.4-4.3,4.9-6.7c3.8-6.2,0-15.9-7.8-10c-0.9,0.6-1.4,1.6-2,2.5c-0.8,1.3-1.7,2.7-2.5,4
		c-1.4,2.2-2.7,5.4-0.9,7.3c1.2,1.2,3.1,1.2,4.6,0.5c1.5-0.7,2.6-2,3.7-3.3c1.4-1.7,2.9-3.4,4.3-5.1c1.2-1.4,1.7-2.7,1.8-3.7"/>
	<path class="st1" d="M173.5,165.6c-2.8,2.8-3.2,7.2-2.7,11.1c0.5,3.9,1.7,7.8,1.5,11.7c-0.3,5.9-3.9,11.1-6.6,16.4
		c-7.3,14.5-8.5,31.2-13.7,46.5c-3.5,10.4-8.8,20.1-14.1,29.7"/>
	<path class="st1" d="M306,32.2c-0.6-2.9,0-6,0.1-9c0.1-3-0.2-6.3-2.3-8.5c-2-2.1-5.1-2.6-8-3c-3.7-0.4-7.5-0.6-11.3-0.6
		c-2.7,0-5.6,0.1-8.1,1.1c-2.4,0.9-4.5,2.5-6.5,4c-3,2.3-6.1,4.6-7.9,7.9"/>
	<path class="st1" d="M300.9,28.6c0.5-4.4-2.8-8.6-6.8-10.5s-8.6-2.1-13-2c-1.4,0-2.8,0.1-4.1,0.6c-3.4,1.3-5,5.4-8.3,7"/>
	<path class="st1" d="M306,40.5c0.9-3.3,2.7-6.6,5.5-8.7s6.6-3,9.8-1.7c2.1,0.8,3.7,2.5,5.3,4c7.6,7.6,15.5,15.5,18.8,25.8
		c1.9,6,2.1,12.4,1.7,18.7"/>
	<path class="st1" d="M307.8,44.1c5.4-0.6,10.8-1.1,16.2-0.3c5.4,0.8,10.7,3.2,14,7.5c2.4,3.1,3.5,6.9,4.3,10.7
		c0.8,3.8,1.1,8-1.2,11.1"/>
	<path class="st1" d="M316.9,65.1c8.2,12.2,16.5,24.8,20.1,39.1c2.2,8.5,2.5,17.4,2.9,26.2c0.2,3.6,0.2,7.6-1.9,10.5"/>
	<path class="st1" d="M341.8,92.6c1.3,8.9,2.6,18,2.1,27c-0.5,9-3,18.2-8.6,25.3c-1.4,1.8-3.2,3.5-5.4,3.7c-2,6.7-0.2,14-0.6,21
		c-0.3,7-4,15.1-11,15.9c0,2.7,0,5.3-0.1,8"/>
	<path class="st1" d="M359,184.6c1.7,21.3-6.9,43.2-22.6,57.6c-2,16.3-13.6,30.4-14.6,46.8c-0.4,6.9,1.1,13.7,2.6,20.4"/>
	<path class="st1" d="M312.1,211.6c0,16.1-0.1,32.2-0.1,48.3c0,10.9,0.1,22.3,5.4,31.9"/>
	<path class="st1" d="M326.9,220.1c-1.8,12.5-0.4,25.2-1.4,37.7s-5.4,25.8-15.7,33.1"/>
	<path class="st1" d="M309.6,211c-8.6,21.8-12.9,45.3-12.3,68.7c0.2,7.6,1,15.7,5.8,21.6"/>
	<path class="st1" d="M193.1,213c-1.9,24.6-2.7,49.3-2.4,74c0.1,11.7,0.9,24.4,8.5,33.3"/>
	<path class="st1" d="M142.8,279.5c-1,15.1-1.8,30.8,3.8,44.9c5.1,12.9,15.6,23.5,28.4,28.7"/>
	<path class="st1" d="M170.9,238.7c-1.5,17,2.6,34.5-2.4,50.8c-1.1,3.5-2.8,7-6,8.7"/>
	<path class="st1" d="M164.6,238.2c0.4,14-5.1,27.4-6.9,41.3c-1,7.6-0.9,15.3-0.3,22.9c0.7,8.2,2.1,16.6,6.6,23.5
		c4.5,6.9,12.8,11.8,20.9,10.2"/>
	<path class="st1" d="M179.5,228.5c-1.4,34.9-0.3,70,3.3,104.7c0.9,8.4,1.9,16.8,1.1,25.2"/>
	<path class="st1" d="M175,257.3c-0.9,25.8-1.7,52.4,7.3,76.7c2,5.5,4.7,10.9,9,14.9c4.3,3.9,10.7,6.1,16.2,4.2"/>
	<path class="st1" d="M187.3,316.8c2.9,6.9,4.8,14.2,5.7,21.6c0.3,2.3,0.4,4.8-0.2,7c-0.7,2.2-2,4.1-3.5,5.9
		c-3.4,4.3-7.1,8.4-10.9,12.4c-1.7,1.8-3.4,3.6-5.7,4.4s-5.2,0.5-6.5-1.6"/>
	<path class="st1" d="M216.8,293.8c4.7,16.7,9.4,33.4,14.1,50.1c2.5,9,5.1,18.1,9.5,26.4c-10.3,1.2-21-2.4-28.5-9.7
		c1.5,3.7,3.9,7,7,9.6c-5.1-3.6-10.2-7.1-15.4-10.7c0.9,3.7,2.1,7.4,3.7,10.9c-4-1.4-7.9-3.3-11.4-5.6c0.5,0.8,1,1.6,1.6,2.3
		c-7.8-4.4-14.6-10.7-19.3-18.3"/>
	<path class="st1" d="M207.5,230.1c6.8,16.8,13.6,33.7,22.4,49.6c2.4,4.3,4.9,8.5,8.4,11.9s8.1,5.9,12.9,6
		c-7.7,1.3-15.5,2.1-23.3,2.7c-6.1,0.4-12.6,0.5-17.8-2.7c4.6,0.8,8.9,2.8,12.4,5.8c-2.8-2.2-5.6-4.4-8.4-6.6"/>
	<path class="st1" d="M273.4,230.5c-4.8,15.3-11.7,29.9-20.5,43.3c-2.6,4-5.8,8.1-10.5,9c12.3-3.2,23.5-10.6,31.3-20.7
		c0.9,2.1-0.1,4.6-1.2,6.6c-5,10.1-10.6,19.9-16.8,29.3c1.4-3.1,4.8-5.1,8.2-4.8c-3.1,9.6-6.4,19.1-9.9,28.5
		c8.2-5.9,16.1-12.3,23.6-19.1c-2.3,19.5-5.4,39.9-17.4,55.3c8.4-3.2,16.1-8.3,22.4-14.7c0.7,2.4-0.3,5-1.3,7.3
		c-5.8,13.1-13.2,25.5-20.6,37.8c-1.3,2.1-2.6,4.3-4.5,5.9c-1.9,1.6-4.7,2.4-7,1.5c19.3-1.1,37-10.4,54.1-19.5
		c-5,7.9-10,15.9-14.9,23.8c22.1-23.6,37-54,42.1-86c1.4-9,2.1-18.1,3.4-27.1c2.3-16.4,6.6-32.7,5.7-49.2c0.3,9.8,0.5,19.7,0.8,29.5
		c0.1,2.6,0.8,6.1,3.5,6.3c4-16.6,15-31.4,16-48.4c0.1,6.3,1,12.6,2.7,18.6c-4.3-7-6.9-15.1-7.3-23.3c5.5,6.5,12.3,11.9,20,15.6"/>
	<path class="st1" d="M153.4,235.7c-6.9,4.8-15.7,5.7-23.5,8.7c-11.4,4.4-20.4,13.5-28.2,23c-16,19.6-28.7,42.4-48,58.8
		C40.9,337,30,357.3,19.6,370.4c-3.4,4.3-6.8,8.6-9.1,13.6c-3.2,6.9-4,14.6-4.8,22.1c-1.9,18.9-3.9,37.7-5.8,56.6"/>
	<path class="st1" d="M336.3,481.6c-5.8-5.1-5.7-14.4-2.4-21.3c3.3-6.9,9.1-12.3,14-18.2c9-10.8,15.3-24.8,13.8-38.8
		c-2.7,7.6-6.3,14.9-10.7,21.7c-8.2-10.4-1.9-28.4,11-31.5c-2-11.4,5.7-23.7,16.8-26.8c-0.6-4.5-7.4-5.5-10.7-2.4
		c-3.3,3.1-3.7,8.1-3.6,12.6s0.5,9.3-1.7,13.3c-2.2,4-8.1,6.2-11.2,2.9c-1.1-1.2-1.6-2.8-2-4.3c-1.3-5.6,0.1-11.5-1.4-16.9
		c-1.6-5.4-6.4-10-9-14.9c-2.6-4.8-3.7-11.3-0.1-15.5c1.5-1.7,3.5-2.7,5.3-4.1c7.6-5.7,9.6-17.5,4.3-25.4c-2.6,1.1-3.7,4.2-4.2,6.9
		s-0.7,5.8-2.4,8c-1.7,2.2-5.8,2.8-7.1,0.3c4-16.1,8.1-32.2,12.1-48.2c0.9-3.8,2.2-7.9,5.5-9.8c2.6-1.5,5.7-1.3,8.7-1.5
		c15.9-1.1,22.5-23.1,36.1-17.5c12.4,5.1,24.4,22.6,32.6,33c7.2,9.1,12.3,19.1,17.2,29.6c3.2,6.9,6.1,12.7,6.1,20.4
		c0.1,11.1-2.9,16.4,4.1,26.1c6.3,8.8,10,19,13.7,29.2c9.7,26.9,19.5,53.8,29.2,80.7"/>
</g>
<g id="Layer_2">
	<path class="st5" d="M294.7,50.6c-9.4-3.4-19.1-6.8-29-5.8c-6.3,0.7-12.2,3.2-17.9,5.8c-5,2.3-9.9,4.7-14.6,7.7
		c-10.6,6.8-19.3,16.4-25.1,27.6c-4.3,8.3-6.9,17.4-7.8,26.6c-0.1,1.3-0.2,2.7-0.7,3.9c-0.5,1.3-1.5,2.3-2.4,3.3
		c-6.5,7.7-10.2,17.7-10.2,27.8c0,4.1,0.6,8.2,0.5,12.3c-0.1,8.6-2.9,16.9-3,25.5c-0.2,12.9,6.1,25.8,16.4,33.5
		c12.3,9.2,28.5,10.9,43.7,12.2"/>
</g>
</svg>
